<svg xmlns="http://www.w3.org/2000/svg" xmlns:xlink="http://www.w3.org/1999/xlink" version="1.1" style="" xml:space="preserve" width="480" height="480"><rect id="backgroundrect" width="100%" height="100%" x="0" y="0" fill="none" stroke="none"/>

















<g class="currentLayer" style=""><title>Layer 1</title><path style="" d="M240,8C111.87,8,8,111.87,8,240s103.87,232,232,232s232-103.87,232-232S368.13,8,240,8z M240,168  L104.232,303.768L240,168l135.768,135.768L240,168z" id="svg_1" class="" fill="none"/><g id="svg_2" class="" fill="#ffffff" fill-opacity="1">
	<path style="" d="M240.5291005373001,480.5291005373001 C107.98110053730011,480.5291005373001 0.52910053730011,373.0771005373001 0.52910053730011,240.5291005373001 S107.98110053730011,0.5291005373001099 240.5291005373001,0.5291005373001099 s240,107.452 240,240 C480.37910053730013,373.0151005373001 373.0151005373001,480.37910053730013 240.5291005373001,480.5291005373001 zM240.5291005373001,16.52910053730011 C116.8171005373001,16.52910053730011 16.52910053730011,116.8171005373001 16.52910053730011,240.5291005373001 s100.288,224 224,224 s224,-100.288 224,-224 C464.3881005373001,116.8761005373001 364.18210053730013,16.670100537300108 240.5291005373001,16.52910053730011 z" id="svg_3" fill="#ffffff" fill-opacity="1"/>
	<path style="" d="M376.2971005373001,312.2971005373001 c-2.122,0 -4.156,-0.8440000000000002 -5.6560000000000015,-2.3440000000000003 L240.5291005373001,179.84110053730012 L110.41710053730012,309.9531005373001 c-3.069,3.178 -8.134,3.266 -11.312,0.19600000000000006 c-3.178,-3.07 -3.266,-8.134 -0.19600000000000006,-11.312 c0.06400000000000003,-0.06700000000000003 0.13,-0.132 0.19600000000000006,-0.19600000000000006 l135.768,-135.768 c3.124,-3.123 8.188,-3.123 11.312,0 l135.768,135.768 c3.124,3.125 3.123,8.19 -0.002000000000000001,11.314 C380.4521005373001,311.4541005373001 378.4181005373001,312.2971005373001 376.2971005373001,312.2971005373001 z" id="svg_4" fill="#ffffff" fill-opacity="1"/>
</g><g id="svg_5">
</g><g id="svg_6">
</g><g id="svg_7">
</g><g id="svg_8">
</g><g id="svg_9">
</g><g id="svg_10">
</g><g id="svg_11">
</g><g id="svg_12">
</g><g id="svg_13">
</g><g id="svg_14">
</g><g id="svg_15">
</g><g id="svg_16">
</g><g id="svg_17">
</g><g id="svg_18">
</g><g id="svg_19">
</g></g></svg>