<svg width="480" height="480" xmlns="http://www.w3.org/2000/svg">

 <g>
  <title>background</title>
  <rect fill="none" id="canvas_background" height="402" width="582" y="-1" x="-1"/>
 </g>
 <g>
  <title>Layer 1</title>
  <path id="svg_1" fill="#E6E7E8" d="m240,8c-128.13,0 -232,103.87 -232,232s103.87,232 232,232s232,-103.87 232,-232s-103.87,-232 -232,-232zm0,160l-135.768,135.768l135.768,-135.768l135.768,135.768l-135.768,-135.768z"/>
  <g id="svg_2">
   <path id="svg_3" fill="#ffffff" d="m240,480c-132.548,0 -240,-107.452 -240,-240s107.452,-240 240,-240s240,107.452 240,240c-0.15,132.486 -107.514,239.85 -240,240zm0,-464c-123.712,0 -224,100.288 -224,224s100.288,224 224,224s224,-100.288 224,-224c-0.141,-123.653 -100.347,-223.859 -224,-224z"/>
   <path id="svg_4" fill="#ffffff" d="m375.768,311.768c-2.122,0 -4.156,-0.844 -5.656,-2.344l-130.112,-130.112l-130.112,130.112c-3.069,3.178 -8.134,3.266 -11.312,0.196c-3.178,-3.07 -3.266,-8.134 -0.196,-11.312c0.064,-0.067 0.13,-0.132 0.196,-0.196l135.768,-135.768c3.124,-3.123 8.188,-3.123 11.312,0l135.768,135.768c3.124,3.125 3.123,8.19 -0.002,11.314c-1.499,1.499 -3.533,2.342 -5.654,2.342z"/>
  </g>
  <g id="svg_5"/>
  <g id="svg_6"/>
  <g id="svg_7"/>
  <g id="svg_8"/>
  <g id="svg_9"/>
  <g id="svg_10"/>
  <g id="svg_11"/>
  <g id="svg_12"/>
  <g id="svg_13"/>
  <g id="svg_14"/>
  <g id="svg_15"/>
  <g id="svg_16"/>
  <g id="svg_17"/>
  <g id="svg_18"/>
  <g id="svg_19"/>
 </g>
</svg>